<?xml version="1.0" standalone="no"?>
<!DOCTYPE svg PUBLIC "-//W3C//DTD SVG 20010904//EN"
 "http://www.w3.org/TR/2001/REC-SVG-20010904/DTD/svg10.dtd">
<svg version="1.0" xmlns="http://www.w3.org/2000/svg"
 width="300.000000pt" height="300.000000pt" viewBox="0 0 300.000000 300.000000"
 preserveAspectRatio="xMidYMid meet">
<metadata>
Created by potrace 1.10, written by Peter Selinger 2001-2011
</metadata>
<g transform="translate(0.000000,300.000000) scale(0.100000,-0.100000)"
fill="#000000" stroke="none">
<path d="M943 2598 c-28 -29 -29 -68 -5 -98 14 -17 33 -24 86 -29 41 -4 71
-13 77 -22 5 -8 9 -43 9 -79 1 -36 7 -78 14 -95 8 -20 9 -39 3 -65 -7 -25 -5
-54 6 -104 14 -62 14 -72 1 -99 -18 -34 -15 -124 7 -174 17 -41 3 -61 -31 -43
-19 10 -26 8 -49 -14 l-28 -27 -44 26 c-24 13 -54 25 -66 25 -30 0 -56 -40
-47 -73 9 -40 96 -114 176 -152 l73 -35 12 -80 c12 -75 11 -83 -7 -118 -11
-20 -20 -42 -20 -49 0 -18 -33 -33 -73 -33 -47 0 -95 -18 -107 -40 -17 -31
-11 -65 13 -88 21 -20 34 -22 131 -22 92 0 114 3 142 20 l32 21 34 -21 c28
-17 50 -20 150 -20 114 0 117 1 137 26 27 34 26 57 -2 89 -18 21 -35 28 -85
34 -34 4 -67 12 -73 18 -6 6 -13 39 -16 74 -3 35 -12 76 -19 91 -9 18 -11 35
-6 50 5 13 7 48 5 78 -7 95 -6 104 18 166 l23 60 -24 48 c-22 46 -22 49 -6 83
12 25 13 39 6 53 -6 11 -8 37 -4 59 3 21 1 55 -6 75 -11 33 -9 39 24 94 44 71
48 118 11 158 -63 68 2 101 183 92 101 -5 153 -27 200 -84 92 -111 58 -324
-63 -399 -46 -28 -54 -30 -155 -30 -119 0 -140 -8 -140 -57 0 -74 43 -98 176
-98 169 0 291 54 403 176 152 166 159 396 16 539 -97 97 -192 119 -486 111
-279 -7 -367 -7 -484 0 -96 5 -101 5 -122 -18z m212 -44 c-17 -34 -6 -67 40
-111 38 -37 42 -49 48 -135 4 -60 -1 -69 -24 -42 -9 11 -22 14 -41 10 l-28 -5
0 87 c0 48 -3 97 -6 108 -8 30 -45 44 -119 44 l-65 0 0 35 0 35 104 0 105 0
-14 -26z m153 16 c7 -1 1 -60 -7 -64 -5 -4 -8 -32 -7 -64 2 -31 4 -91 5 -132
l1 -75 26 45 c29 52 50 71 70 63 35 -13 4 -96 -64 -173 -32 -37 -44 -61 -62
-135 -12 -50 -25 -97 -28 -105 -3 -8 8 -3 24 12 16 15 45 31 63 34 30 6 33 5
29 -17 -2 -15 -28 -42 -73 -77 l-70 -54 -17 -76 c-18 -87 -23 -212 -8 -212 6
0 10 8 10 18 0 50 133 262 165 262 8 0 15 -4 15 -10 0 -14 -53 -145 -96 -235
-21 -44 -40 -84 -43 -90 -2 -5 12 5 33 23 32 28 76 43 76 27 0 -33 -75 -125
-125 -152 -14 -8 -13 -18 10 -97 24 -83 26 -112 6 -90 -12 13 -49 167 -62 259
-6 44 -13 89 -15 100 -2 15 -24 28 -80 49 -109 40 -218 146 -167 163 12 4 108
-62 185 -127 l53 -45 -29 39 c-45 60 -65 136 -36 136 6 0 50 -91 62 -130 3 -8
9 14 13 50 4 36 20 106 35 157 l28 92 -34 98 c-44 128 -44 217 -1 200 19 -7
33 -58 42 -152 4 -38 8 -71 10 -73 1 -2 10 41 20 94 12 65 16 129 13 197 -4
110 -15 138 -70 185 -34 29 -35 36 -3 68 25 25 28 26 103 14z m518 -4 c95 -19
142 -45 196 -105 120 -134 99 -342 -51 -491 -63 -63 -154 -113 -239 -131 -51
-10 -236 -9 -247 3 -2 2 -6 20 -7 39 -2 26 0 33 12 30 42 -12 166 -12 208 0
68 19 155 107 176 179 20 67 20 161 1 226 -41 140 -191 211 -388 184 -117 -16
-127 -22 -127 -69 0 -45 -8 -71 -22 -71 -10 0 -6 94 7 175 l7 41 201 3 c150 2
221 -1 273 -13z m-488 -547 c-31 -20 -36 -10 -23 40 20 77 30 83 33 22 2 -37
-1 -57 -10 -62z m-163 -44 c9 -25 9 -45 1 -79 -19 -74 -26 -65 -26 34 0 96 5
105 25 45z m147 -140 c-17 -14 -44 -46 -61 -72 -32 -48 -35 -47 -25 6 5 23 21
43 58 71 54 42 78 37 28 -5z m48 -590 c13 -15 45 -23 125 -28 48 -3 50 -5 53
-35 l3 -32 -141 0 c-92 0 -139 4 -135 10 3 6 13 10 22 10 10 0 13 5 8 18 -4 9
-17 50 -28 90 l-20 72 41 39 c23 21 43 44 43 52 1 8 5 -30 9 -84 4 -53 13
-104 20 -112z m-185 10 c9 -38 19 -78 22 -87 5 -17 -5 -18 -121 -18 l-126 0 0
30 c0 17 1 30 3 31 1 0 37 4 80 8 43 5 83 13 89 19 6 6 13 37 16 69 5 64 9 60
37 -52z"/>
<path d="M1227 2553 c-8 -7 11 -33 24 -33 5 0 9 9 9 20 0 19 -20 27 -33 13z"/>
<path d="M1345 2275 c-16 -26 -29 -58 -31 -72 -2 -23 -1 -24 16 -8 32 29 66
103 53 116 -8 8 -18 -1 -38 -36z m5 -26 c-16 -30 -30 -50 -30 -45 0 11 52 107
57 103 2 -2 -10 -28 -27 -58z"/>
<path d="M1180 2176 c0 -45 12 -88 21 -74 6 8 9 1 9 -21 0 -19 3 -32 6 -29 3
3 2 34 -2 69 -7 56 -9 60 -15 34 -7 -28 -8 -27 -6 8 2 20 -1 37 -5 37 -4 0 -8
-11 -8 -24z"/>
<path d="M1281 1934 c-10 -8 -21 -23 -24 -34 -5 -20 -5 -20 22 0 40 28 54 47
36 47 -9 0 -24 -6 -34 -13z"/>
<path d="M1323 1735 c-9 -19 -20 -32 -24 -30 -17 11 -99 -171 -99 -220 0 -28
25 5 26 34 1 27 63 185 70 178 2 -2 -12 -43 -32 -91 -19 -49 -34 -90 -32 -92
3 -2 85 174 110 238 13 32 -2 19 -19 -17z"/>
<path d="M947 1728 c7 -8 10 -17 7 -20 -3 -4 14 -19 38 -35 51 -35 81 -51 56
-30 -10 8 -15 16 -12 19 5 5 -53 54 -86 73 -12 7 -13 6 -3 -7z"/>
<path d="M1305 1500 c-4 -6 -10 -8 -14 -6 -12 8 -61 -47 -66 -73 l-4 -22 26
21 c22 17 73 78 73 87 0 7 -9 2 -15 -7z"/>
<path d="M1265 1079 c-16 -5 -46 -6 -67 -2 -26 4 -45 1 -61 -10 -15 -10 -29
-12 -38 -6 -8 5 -28 6 -45 3 -18 -3 -35 -1 -38 5 -4 6 -24 11 -45 11 -53 0
-69 -22 -73 -100 -3 -64 -3 -65 -40 -82 -48 -23 -58 -57 -29 -94 16 -21 21
-41 21 -91 0 -55 4 -67 25 -88 28 -29 42 -30 69 -10 17 13 23 13 44 -1 19 -13
30 -14 49 -5 15 7 30 8 41 2 26 -14 94 -11 116 5 17 12 23 12 41 0 14 -10 40
-13 76 -10 30 3 61 4 69 4 158 -3 198 -3 215 -2 11 1 46 -1 79 -4 34 -4 77 -1
102 6 35 10 47 10 59 0 12 -10 21 -10 43 -1 22 9 35 9 54 0 21 -9 30 -8 49 4
19 14 25 14 50 1 73 -37 161 1 144 63 -12 42 -12 126 0 146 17 29 -13 71 -58
78 -20 3 -40 9 -44 13 -4 4 2 32 12 62 22 64 13 91 -26 86 -30 -3 -36 -3 -79
4 -117 17 -121 17 -144 -5 l-23 -21 -18 20 c-23 25 -33 25 -62 -2 -22 -20 -24
-21 -42 -4 -12 11 -27 15 -40 11 -11 -3 -28 -2 -38 4 -12 6 -25 6 -36 0 -12
-7 -29 -6 -52 3 -28 9 -42 10 -66 1 -28 -11 -78 -7 -149 11 -8 2 -28 0 -45 -5z
m-257 -41 c7 -7 12 -37 12 -68 0 -65 -11 -80 -57 -80 l-33 0 0 80 0 80 33 0
c18 0 38 -5 45 -12z m82 -68 c0 -47 -4 -80 -10 -80 -6 0 -10 33 -10 80 0 47 4
80 10 80 6 0 10 -33 10 -80z m124 64 c20 -20 20 -34 1 -34 -8 0 -15 7 -15 16
0 10 -7 14 -22 12 -21 -3 -23 -9 -23 -58 0 -49 2 -55 23 -58 15 -2 22 2 22 12
0 9 7 16 15 16 19 0 19 -14 -1 -34 -21 -22 -61 -20 -74 3 -5 11 -10 40 -10 65
0 48 18 76 50 76 10 0 26 -7 34 -16z m136 6 c0 -5 -9 -10 -20 -10 -18 0 -20
-7 -20 -70 0 -40 -4 -70 -10 -70 -6 0 -10 30 -10 70 0 63 -2 70 -20 70 -11 0
-20 5 -20 10 0 6 23 10 50 10 28 0 50 -4 50 -10z m50 -70 c0 -47 -4 -80 -10
-80 -6 0 -10 33 -10 80 0 47 4 80 10 80 6 0 10 -33 10 -80z m124 64 c10 -10
16 -33 16 -64 0 -51 -18 -80 -48 -80 -31 0 -44 17 -49 64 -9 75 39 123 81 80z
m106 -41 l31 -58 -6 58 c-4 47 -3 57 10 57 13 0 15 -13 13 -76 -1 -41 -5 -77
-10 -80 -4 -3 -21 21 -37 53 l-30 58 -1 -57 c0 -32 -4 -58 -10 -58 -6 0 -10
33 -10 80 0 46 4 80 10 80 5 0 23 -26 40 -57z m167 -18 c13 -38 23 -73 23 -77
0 -17 -18 -7 -23 12 -3 14 -14 20 -32 20 -18 0 -29 -6 -32 -20 -3 -11 -10 -20
-15 -20 -6 0 -8 8 -5 18 2 9 13 45 23 80 9 34 22 61 27 59 6 -2 21 -34 34 -72z
m137 59 c20 -20 20 -38 1 -58 -14 -14 -14 -18 0 -45 18 -35 18 -41 5 -41 -6 0
-18 16 -27 35 -21 45 -46 47 -41 4 2 -17 -1 -31 -7 -30 -10 1 -17 128 -8 144
8 13 61 7 77 -9z m72 -19 c16 -40 26 -39 44 5 7 16 16 30 21 30 13 0 11 -6
-11 -50 -11 -22 -20 -56 -20 -75 0 -25 -4 -35 -12 -32 -7 2 -12 16 -10 31 2
15 -8 45 -23 69 -28 48 -30 57 -14 57 5 0 17 -16 25 -35z m-1026 -176 c0 -14
-7 -19 -26 -19 l-26 0 4 -90 c4 -89 4 -90 -19 -90 -22 0 -23 3 -23 90 0 89 0
90 -25 90 -18 0 -25 5 -25 18 0 27 2 27 74 24 57 -3 66 -6 66 -23z m468 -87
c3 -111 3 -112 -21 -112 -19 0 -26 9 -41 53 -28 79 -40 82 -32 10 6 -62 5 -63
-19 -63 l-25 0 0 110 c0 110 0 110 24 110 20 0 28 -9 42 -47 26 -71 38 -77 30
-15 -8 59 -4 71 22 68 15 -3 17 -17 20 -114z m120 112 c13 -4 22 -14 22 -26 0
-16 -6 -19 -32 -16 -28 2 -34 -1 -36 -19 -3 -18 3 -24 30 -31 41 -10 58 -54
37 -98 -12 -25 -21 -29 -62 -32 -42 -3 -47 -1 -47 17 0 17 6 21 35 21 30 0 35
3 35 24 0 19 -7 26 -31 31 -39 9 -55 43 -43 87 6 22 18 34 34 39 34 10 32 9
58 3z m102 -95 c0 -88 0 -89 25 -89 18 0 25 -5 25 -20 0 -17 -7 -20 -50 -20
l-50 0 0 114 0 113 25 -5 c24 -4 25 -6 25 -93z m350 70 c0 -12 -7 -19 -20 -19
-19 0 -20 -7 -20 -90 0 -89 0 -90 -25 -90 -25 0 -25 1 -25 90 0 83 -1 90 -20
90 -14 0 -20 7 -20 23 0 21 3 22 65 19 56 -3 65 -6 65 -23z m130 0 c0 -15 -7
-19 -35 -19 -31 0 -35 -3 -35 -26 0 -22 4 -25 28 -22 22 2 28 -1 30 -19 3 -20
-1 -23 -27 -23 -26 0 -31 -4 -31 -25 0 -22 4 -25 35 -25 28 0 35 -4 35 -20 0
-18 -7 -20 -57 -20 l-58 0 3 109 3 110 47 3 c57 4 62 2 62 -23z m-1029 -18 c9
-31 9 -44 -3 -68 -12 -24 -12 -35 -2 -63 17 -48 17 -50 -10 -50 -19 0 -26 7
-33 37 -12 52 -33 55 -33 4 0 -37 -2 -41 -25 -41 l-25 0 0 110 0 110 60 0 59
0 12 -39z m129 35 c0 -2 9 -48 20 -101 25 -120 25 -117 -2 -113 -15 2 -24 11
-26 26 -2 16 -10 22 -27 22 -17 0 -25 -6 -27 -22 -2 -15 -11 -24 -25 -26 -28
-4 -28 -6 -2 118 l22 100 33 0 c19 0 34 -2 34 -4z m595 -18 c3 -13 13 -62 23
-110 l19 -88 -23 0 c-17 0 -25 7 -30 25 -4 18 -13 25 -30 25 -19 0 -24 -5 -24
-25 0 -20 -5 -25 -26 -25 -22 0 -25 4 -21 23 3 12 13 61 23 110 l17 87 33 0
c27 0 35 -5 39 -22z"/>
<path d="M950 970 c0 -58 1 -61 23 -58 20 3 22 9 22 58 0 49 -2 55 -22 58 -22
3 -23 0 -23 -58z"/>
<path d="M1470 970 c0 -58 1 -61 23 -58 20 3 22 9 22 58 0 49 -2 55 -22 58
-22 3 -23 0 -23 -58z"/>
<path d="M1753 980 c-10 -35 -5 -44 20 -38 12 2 12 9 2 38 l-12 35 -10 -35z"/>
<path d="M1870 1005 c0 -23 4 -26 28 -23 19 2 27 9 27 23 0 14 -8 21 -27 23
-24 3 -28 0 -28 -23z"/>
<path d="M1040 790 c0 -23 4 -30 20 -30 16 0 20 7 20 30 0 23 -4 30 -20 30
-16 0 -20 -7 -20 -30z"/>
<path d="M1207 791 c-11 -51 -8 -71 8 -71 16 0 19 35 6 80 -7 24 -7 24 -14 -9z"/>
<path d="M1801 810 c-1 -8 -4 -32 -7 -52 -5 -31 -4 -38 10 -38 11 0 16 8 15
28 -1 31 -16 84 -18 62z"/>
</g>
</svg>
