<svg xmlns="http://www.w3.org/2000/svg" xmlns:xlink="http://www.w3.org/1999/xlink" width="306" zoomAndPan="magnify" viewBox="0 0 229.5 253.500006" height="338" preserveAspectRatio="xMidYMid meet" version="1.0"><defs><g/><clipPath id="c2bb2c210d"><path d="M 40 0.507812 L 189.691406 0.507812 L 189.691406 179.757812 L 40 179.757812 Z M 40 0.507812 " clip-rule="nonzero"/></clipPath></defs><g clip-path="url(#c2bb2c210d)"><path fill="#ffffff" d="M 47.902344 8.75 L 46.894531 7.867188 L 46.894531 1.570312 L 47.902344 0.683594 C 58.09375 1.007812 66.492188 1.257812 73.113281 1.425781 C 73.109375 1.429688 73.105469 1.4375 73.101562 1.441406 C 72.9375 1.691406 72.789062 1.953125 72.660156 2.222656 C 71.507812 3.34375 70.734375 4.8125 70.453125 6.46875 C 70.148438 8.199219 69.90625 13.816406 77.90625 18.214844 C 78.574219 20.164062 79.800781 22.148438 81.589844 24.203125 C 82.601562 30.636719 82.894531 36.78125 82.632812 42.855469 C 81.722656 41.226562 80.769531 40.398438 79.851562 39.769531 C 78.605469 38.917969 77.171875 38.464844 75.699219 38.464844 C 74.292969 38.464844 72.921875 38.875 71.6875 39.648438 L 71.65625 36.464844 C 71.574219 26.894531 71.34375 20.71875 70.96875 17.949219 C 70.59375 15.175781 70 13.328125 69.207031 12.40625 C 68.410156 11.480469 66.882812 10.726562 64.621094 10.136719 C 62.355469 9.550781 56.78125 9.085938 47.902344 8.75 Z M 90.46875 71.734375 C 91.191406 71.519531 91.929688 71.34375 92.6875 71.203125 C 93.210938 71.109375 94.148438 70.941406 95.25 70.941406 C 95.472656 70.941406 95.695312 70.949219 95.914062 70.964844 L 95.914062 61.035156 C 95.914062 59.757812 95.914062 58.511719 95.917969 57.285156 C 94.496094 58.902344 93.367188 60.101562 92.851562 60.640625 C 92.175781 64.371094 91.363281 68.054688 90.46875 71.734375 Z M 95.910156 91.203125 L 95.910156 88.015625 C 92.914062 90.664062 88.804688 93.808594 83.410156 97.5625 C 82.726562 100.042969 82.160156 102.179688 81.652344 104.175781 C 81.300781 105.546875 81.003906 106.992188 80.757812 108.511719 C 84.1875 102.84375 87.890625 98.070312 90.851562 94.96875 C 92.554688 93.179688 94.136719 91.824219 95.910156 91.203125 Z M 93.953125 125.6875 L 95.941406 125.519531 L 95.914062 120.394531 C 95.179688 122.054688 94.382812 123.828125 93.527344 125.726562 C 93.671875 125.714844 93.808594 125.699219 93.953125 125.6875 Z M 103.199219 170.191406 C 100.9375 169.5625 99.40625 168.789062 98.613281 167.859375 C 97.816406 166.9375 97.210938 165.089844 96.789062 162.320312 C 96.371094 159.546875 96.121094 153.417969 96.035156 143.925781 L 96.027344 142.390625 C 93.492188 146.347656 89.695312 150.78125 84.300781 153.75 C 86.757812 164.511719 89.324219 172.066406 89.355469 172.152344 L 90.984375 176.917969 L 86.234375 178.570312 L 85.800781 178.722656 C 90.535156 178.808594 101.90625 179.136719 119.917969 179.707031 L 120.921875 178.699219 L 120.921875 172.398438 L 119.917969 171.644531 C 111.03125 171.308594 105.464844 170.824219 103.199219 170.191406 Z M 182.128906 17.566406 C 177.105469 11.101562 170.757812 6.652344 163.089844 4.210938 C 155.421875 1.78125 145.722656 0.5625 133.992188 0.5625 C 131.5625 0.5625 125.152344 0.730469 114.761719 1.066406 C 107.835938 1.359375 101.402344 1.554688 95.441406 1.636719 C 96.65625 4.511719 96.609375 8.535156 93.726562 12.96875 C 94.078125 14.929688 94.214844 17.847656 93.636719 22.179688 C 93.945312 24.117188 94.195312 26.050781 94.398438 27.984375 C 95.015625 27.421875 95.652344 26.933594 96.3125 26.53125 C 96.496094 20.90625 96.738281 16.785156 97.042969 14.164062 C 106.171875 11.308594 114.554688 9.882812 122.179688 9.882812 C 136.167969 9.882812 146.625 13.285156 153.535156 20.085938 C 160.449219 26.890625 163.902344 36.003906 163.902344 47.425781 C 163.902344 58.761719 160.570312 68.070312 153.910156 75.332031 C 147.246094 82.597656 138.425781 86.226562 127.453125 86.226562 C 123.515625 86.226562 118.40625 85.515625 112.117188 84.082031 L 110.984375 85.34375 L 113.121094 93.027344 C 119.488281 94.203125 125.269531 94.792969 130.46875 94.792969 C 137.421875 94.792969 144.125 93.71875 150.578125 91.582031 C 157.03125 89.4375 163.398438 85.890625 169.683594 80.9375 C 175.96875 75.980469 180.871094 69.976562 184.386719 62.921875 C 187.90625 55.867188 189.667969 48.558594 189.667969 41 C 189.671875 31.847656 187.15625 24.039062 182.128906 17.566406 Z M 75.484375 80.585938 L 75.109375 79.671875 C 74.445312 78.066406 73.210938 74.980469 71.90625 71.246094 L 71.90625 93.316406 C 72.628906 90.675781 73.355469 88.125 74.03125 85.738281 C 74.515625 84.015625 75.003906 82.296875 75.484375 80.585938 Z M 77.804688 176.148438 C 77.589844 175.519531 74.382812 166.109375 71.636719 153.324219 C 71.480469 158.191406 71.214844 161.527344 70.839844 163.332031 C 70.292969 165.933594 69.582031 167.636719 68.699219 168.433594 C 67.820312 169.234375 66.078125 169.878906 63.488281 170.382812 C 60.890625 170.886719 55.695312 171.308594 47.902344 171.644531 L 46.894531 172.398438 L 46.894531 178.699219 L 47.902344 179.707031 C 62.601562 179.238281 72.871094 178.933594 78.71875 178.789062 Z M 86.542969 2.074219 C 86.71875 1.960938 86.875 1.886719 86.996094 1.835938 C 88.265625 1.316406 89.609375 1.742188 90.425781 2.921875 C 91.59375 4.59375 91.644531 7.945312 88.136719 12.019531 C 89.472656 14.277344 88.925781 19.570312 88.558594 22.117188 L 88.542969 22.238281 C 89.902344 30.441406 90.160156 38.148438 89.671875 45.574219 C 92.296875 38.796875 96.476562 31.617188 99.621094 30.496094 C 101.003906 29.996094 102.242188 30.515625 103.003906 31.910156 C 106.699219 38.695312 90.894531 55.394531 89.078125 57.28125 L 88.152344 58.238281 C 86.585938 67.410156 84.152344 76.316406 81.585938 85.398438 C 83.769531 81.535156 87.496094 77.285156 93.589844 76.167969 C 94.492188 76.007812 96.886719 75.566406 97.535156 77.144531 C 98.480469 79.429688 92.753906 84.910156 80.496094 93.441406 L 79.039062 94.457031 C 78.261719 97.242188 77.496094 100.066406 76.765625 102.921875 C 74.3125 112.507812 74.542969 124.0625 75.867188 135.039062 C 77.679688 120.605469 88.4375 104.804688 94.492188 98.453125 C 97 95.824219 97.855469 95.765625 98.460938 95.90625 C 98.917969 96.019531 99.265625 96.363281 99.398438 96.828125 C 100.113281 99.320312 89.171875 123.367188 81.878906 138.960938 C 85.089844 135.261719 89.679688 131.117188 94.371094 130.71875 L 95.984375 130.582031 L 95.480469 132.121094 C 95.289062 132.710938 90.636719 146.582031 78.5 150.832031 C 81.226562 163.886719 84.519531 173.589844 84.585938 173.796875 L 82.5625 174.496094 C 82.109375 173.171875 74.175781 149.757812 72.890625 126.375 L 70.261719 125.625 C 69.328125 125.363281 47.3125 118.972656 41.179688 106.695312 C 40.730469 105.804688 39.6875 103.710938 41.003906 102.695312 C 43.261719 100.949219 53.4375 108.054688 71.257812 123.792969 L 72.824219 125.175781 C 72.820312 125.09375 72.820312 125.015625 72.816406 124.933594 L 71.78125 123.867188 C 71.359375 123.433594 61.464844 113.132812 61.960938 104.601562 C 61.996094 103.980469 62.078125 102.527344 63.105469 102.390625 C 64.84375 102.152344 68.082031 109.015625 72.746094 122.765625 C 72.574219 115.65625 73.089844 108.65625 74.691406 102.390625 C 76.03125 97.167969 77.472656 92.058594 78.875 87.117188 C 79.523438 84.824219 80.171875 82.539062 80.800781 80.261719 L 79.757812 77.742188 C 77.765625 72.917969 68.125 48.640625 74.105469 44.101562 C 75.046875 43.382812 76.105469 43.320312 77.003906 43.941406 C 77.773438 44.46875 80.125 46.070312 81.414062 61.308594 C 81.90625 67.105469 82.070312 73.203125 81.9375 76.085938 C 86.527344 58.890625 89.753906 41.828125 86.308594 21.890625 C 83.214844 18.691406 82.351562 16.351562 82.324219 14.761719 C 75.253906 11.71875 75.238281 8.320312 75.410156 7.335938 C 75.570312 6.398438 76.144531 5.679688 76.960938 5.296875 C 76.972656 4.933594 77.082031 4.5625 77.3125 4.207031 C 78.648438 2.175781 83.613281 0.582031 85.734375 1.492188 C 86.070312 1.632812 86.335938 1.832031 86.542969 2.074219 Z M 69.164062 116.664062 C 67.226562 111.460938 65.292969 106.871094 64.0625 104.820312 C 64.730469 107.417969 66.933594 112.234375 69.164062 116.664062 Z M 63.304688 105.878906 C 63.5625 110.011719 66.210938 114.566406 68.636719 117.929688 C 66.753906 114.253906 64.3125 109.203125 63.304688 105.878906 Z M 62.9375 119.445312 C 54.453125 112.304688 46.34375 106.117188 43.183594 104.765625 C 46.984375 108.871094 56.308594 115.1875 62.9375 119.445312 Z M 62.875 120.65625 C 56.792969 116.769531 48.152344 110.972656 43.613281 106.667969 C 47.421875 113.128906 56.285156 117.867188 62.875 120.65625 Z M 92.746094 133.230469 C 92.683594 133.253906 92.625 133.277344 92.5625 133.296875 L 79.292969 148.027344 L 79.28125 148.210938 C 86.996094 144.765625 91.195312 136.800781 92.746094 133.230469 Z M 79.441406 145.738281 L 79.402344 146.351562 L 90.078125 134.496094 C 84.871094 137.675781 80.296875 144.425781 79.441406 145.738281 Z M 77.945312 142.304688 Z M 93.527344 102.957031 C 87.101562 111.003906 76.804688 127.332031 77.792969 140.851562 C 79.179688 135.773438 84.625 117.25 93.527344 102.957031 Z M 79.246094 139.535156 C 85.789062 125.539062 93.894531 107.605469 96.488281 100.359375 C 87.234375 113.636719 81.292969 132.40625 79.246094 139.535156 Z M 89.429688 53.765625 Z M 101.328125 33.457031 C 99.441406 35.070312 93.664062 46.339844 90.722656 52.304688 C 96.351562 45.835938 102.40625 37.21875 101.328125 33.457031 Z M 100.878906 32.585938 L 101.128906 32.9375 C 101.039062 32.769531 100.953125 32.664062 100.878906 32.585938 Z M 89.855469 51.707031 C 92.304688 46.730469 98.648438 34.128906 100.8125 32.53125 C 100.738281 32.480469 100.667969 32.460938 100.601562 32.460938 C 100.511719 32.460938 100.433594 32.488281 100.34375 32.519531 C 97.261719 33.621094 91.648438 44.609375 89.855469 51.707031 Z M 76.265625 46.199219 C 76.578125 49.058594 78.023438 61.746094 79.804688 70.722656 C 79.546875 62.570312 78.441406 49.261719 76.265625 46.199219 Z M 78.03125 66.867188 C 76.515625 58.054688 75.394531 47.910156 75.191406 46.003906 C 73.027344 48.28125 75.019531 57.652344 78.03125 66.867188 Z M 95.089844 78.671875 C 91.648438 80.378906 85.519531 86.148438 81.910156 89.78125 C 81.90625 89.792969 81.898438 89.808594 81.894531 89.820312 C 87.773438 85.558594 93.492188 80.867188 95.089844 78.671875 Z M 83.148438 87.085938 C 86.128906 84.1875 90.351562 80.324219 93.527344 78.375 C 88.25 79.527344 85.011719 83.574219 83.148438 87.085938 Z M 88.066406 3.414062 C 87.933594 3.414062 87.800781 3.441406 87.671875 3.492188 C 87.421875 3.59375 87.148438 3.8125 86.886719 4.167969 L 86.808594 4.515625 L 86.683594 4.488281 C 86.066406 5.570312 85.632812 7.574219 86.089844 10.929688 C 86.207031 10.929688 86.320312 10.933594 86.433594 10.941406 L 86.714844 10.933594 C 89.433594 7.820312 89.792969 5.136719 88.964844 3.945312 C 88.738281 3.625 88.449219 3.4375 88.132812 3.414062 C 88.109375 3.417969 88.089844 3.414062 88.066406 3.414062 Z M 82.636719 12.941406 L 82.953125 12.40625 C 81.761719 8.417969 79.800781 6.886719 78.464844 6.789062 C 78.410156 6.785156 78.363281 6.785156 78.3125 6.785156 C 78.292969 6.785156 78.277344 6.785156 78.253906 6.785156 L 77.957031 7.097656 L 77.746094 6.894531 C 77.433594 7.03125 77.230469 7.289062 77.171875 7.640625 C 77 8.640625 77.980469 10.84375 82.636719 12.941406 Z M 78.925781 5.046875 C 80.675781 5.351562 82.84375 6.972656 84.257812 10.710938 C 83.808594 6.929688 84.421875 4.730469 85.214844 3.457031 C 85.242188 3.230469 85.164062 3.195312 85.035156 3.140625 C 83.738281 2.585938 79.972656 3.792969 78.925781 5.046875 Z M 87.011719 20.023438 C 87.464844 15.394531 86.933594 12.835938 86.472656 12.753906 C 86.4375 12.746094 86.402344 12.742188 86.367188 12.738281 L 85.824219 12.75 C 85.25 12.832031 84.628906 13.148438 84.320312 13.757812 C 83.632812 15.089844 84.632812 17.390625 87.011719 20.023438 Z M 87.011719 20.023438 " fill-opacity="1" fill-rule="nonzero"/></g><g fill="#ffffff" fill-opacity="1"><g transform="translate(32.797117, 243.088238)"><g><path d="M 5.59375 0 L 5.59375 -22.515625 L 0.40625 -22.515625 L 0.40625 -27.515625 L 16.3125 -27.515625 L 16.3125 -22.515625 L 11.125 -22.515625 L 11.125 0 Z M 5.59375 0 "/></g></g></g><g fill="#ffffff" fill-opacity="1"><g transform="translate(49.515458, 243.088238)"><g><path d="M 13.234375 0 L 10.5625 -9.59375 L 7.59375 -9.59375 L 7.59375 0 L 2.078125 0 L 2.078125 -27.515625 L 11.359375 -27.515625 C 13.328125 -27.515625 14.8125 -27.179688 15.8125 -26.515625 C 16.8125 -25.847656 17.484375 -24.890625 17.828125 -23.640625 C 18.179688 -22.390625 18.359375 -20.707031 18.359375 -18.59375 C 18.359375 -16.59375 18.175781 -14.941406 17.8125 -13.640625 C 17.457031 -12.335938 16.734375 -11.351562 15.640625 -10.6875 L 18.953125 0 Z M 10.046875 -14.359375 C 10.921875 -14.359375 11.546875 -14.457031 11.921875 -14.65625 C 12.296875 -14.851562 12.539062 -15.222656 12.65625 -15.765625 C 12.78125 -16.316406 12.84375 -17.25 12.84375 -18.5625 C 12.84375 -19.84375 12.78125 -20.75 12.65625 -21.28125 C 12.539062 -21.8125 12.296875 -22.175781 11.921875 -22.375 C 11.546875 -22.582031 10.921875 -22.6875 10.046875 -22.6875 L 7.59375 -22.6875 L 7.59375 -14.359375 Z M 10.046875 -14.359375 "/></g></g></g><g fill="#ffffff" fill-opacity="1"><g transform="translate(69.273499, 243.088238)"><g><path d="M 14.125 0 L 13.046875 -5.640625 L 6.875 -5.640625 L 5.796875 0 L 0.3125 0 L 6 -27.515625 L 14.046875 -27.515625 L 19.71875 0 Z M 10.078125 -22.3125 L 9.84375 -22.3125 L 7.6875 -10.40625 L 12.203125 -10.40625 Z M 10.078125 -22.3125 "/></g></g></g><g fill="#ffffff" fill-opacity="1"><g transform="translate(89.311508, 243.088238)"><g><path d="M 13.875 0 L 7.484375 -15.078125 L 7.3125 -15.078125 L 7.3125 0 L 2.078125 0 L 2.078125 -27.515625 L 7.40625 -27.515625 L 13.359375 -13.59375 L 13.5625 -13.59375 L 13.5625 -27.515625 L 18.84375 -27.515625 L 18.84375 0 Z M 13.875 0 "/></g></g></g><g fill="#ffffff" fill-opacity="1"><g transform="translate(110.22943, 243.088238)"><g><path d="M 8.84375 0.3125 C 7.71875 0.3125 6.492188 0.25 5.171875 0.125 C 3.859375 0.0078125 2.695312 -0.148438 1.6875 -0.359375 L 1.6875 -4.84375 C 4.40625 -4.625 6.28125 -4.515625 7.3125 -4.515625 C 8.25 -4.515625 8.957031 -4.566406 9.4375 -4.671875 C 9.914062 -4.785156 10.273438 -4.972656 10.515625 -5.234375 C 10.734375 -5.453125 10.875 -5.753906 10.9375 -6.140625 C 11.007812 -6.523438 11.046875 -7.078125 11.046875 -7.796875 C 11.046875 -8.785156 10.988281 -9.484375 10.875 -9.890625 C 10.769531 -10.304688 10.550781 -10.613281 10.21875 -10.8125 C 9.882812 -11.019531 9.304688 -11.203125 8.484375 -11.359375 L 4.71875 -12.046875 C 3.382812 -12.285156 2.460938 -13.015625 1.953125 -14.234375 C 1.453125 -15.460938 1.203125 -17.238281 1.203125 -19.5625 C 1.203125 -21.820312 1.523438 -23.550781 2.171875 -24.75 C 2.828125 -25.957031 3.726562 -26.773438 4.875 -27.203125 C 6.019531 -27.628906 7.472656 -27.84375 9.234375 -27.84375 C 10.460938 -27.84375 11.644531 -27.757812 12.78125 -27.59375 C 13.914062 -27.4375 14.84375 -27.28125 15.5625 -27.125 L 15.5625 -22.640625 C 14.125 -22.878906 12.507812 -23 10.71875 -23 C 9.757812 -23 9.019531 -22.957031 8.5 -22.875 C 7.976562 -22.800781 7.597656 -22.65625 7.359375 -22.4375 C 7.066406 -22.226562 6.878906 -21.921875 6.796875 -21.515625 C 6.722656 -21.117188 6.6875 -20.535156 6.6875 -19.765625 C 6.6875 -18.929688 6.726562 -18.328125 6.8125 -17.953125 C 6.90625 -17.585938 7.070312 -17.320312 7.3125 -17.15625 C 7.5625 -17 7.976562 -16.867188 8.5625 -16.765625 L 12.078125 -16.125 C 13.015625 -15.988281 13.804688 -15.695312 14.453125 -15.25 C 15.109375 -14.8125 15.625 -14.085938 16 -13.078125 C 16.375 -12.015625 16.5625 -10.507812 16.5625 -8.5625 C 16.5625 -6.03125 16.253906 -4.125 15.640625 -2.84375 C 15.023438 -1.5625 14.175781 -0.710938 13.09375 -0.296875 C 12.019531 0.109375 10.601562 0.3125 8.84375 0.3125 Z M 8.84375 0.3125 "/></g></g></g><g fill="#ffffff" fill-opacity="1"><g transform="translate(127.947664, 243.088238)"><g><path d="M 2.078125 0 L 2.078125 -27.515625 L 7.59375 -27.515625 L 7.59375 -5 L 14.5625 -5 L 14.5625 0 Z M 2.078125 0 "/></g></g></g><g fill="#ffffff" fill-opacity="1"><g transform="translate(143.106153, 243.088238)"><g><path d="M 14.125 0 L 13.046875 -5.640625 L 6.875 -5.640625 L 5.796875 0 L 0.3125 0 L 6 -27.515625 L 14.046875 -27.515625 L 19.71875 0 Z M 10.078125 -22.3125 L 9.84375 -22.3125 L 7.6875 -10.40625 L 12.203125 -10.40625 Z M 10.078125 -22.3125 "/></g></g></g><g fill="#ffffff" fill-opacity="1"><g transform="translate(163.144162, 243.088238)"><g><path d="M 5.59375 0 L 5.59375 -22.515625 L 0.40625 -22.515625 L 0.40625 -27.515625 L 16.3125 -27.515625 L 16.3125 -22.515625 L 11.125 -22.515625 L 11.125 0 Z M 5.59375 0 "/></g></g></g><g fill="#ffffff" fill-opacity="1"><g transform="translate(179.862503, 243.088238)"><g><path d="M 2.078125 0 L 2.078125 -27.515625 L 15.4375 -27.515625 L 15.4375 -22.6875 L 7.59375 -22.6875 L 7.59375 -16.3125 L 14.359375 -16.3125 L 14.359375 -11.484375 L 7.59375 -11.484375 L 7.59375 -4.84375 L 15.4375 -4.84375 L 15.4375 0 Z M 2.078125 0 "/></g></g></g><g fill="#ffffff" fill-opacity="1"><g transform="translate(41.985715, 211.204396)"><g><path d="M 1.96875 -0.65625 L 1.96875 -18.375 C 1.96875 -18.550781 2.039062 -18.695312 2.1875 -18.8125 C 2.34375 -18.9375 2.53125 -19 2.75 -19 L 7.359375 -19 C 9.003906 -19 10.320312 -18.550781 11.3125 -17.65625 C 12.300781 -16.769531 12.796875 -15.375 12.796875 -13.46875 L 12.796875 -5.5625 C 12.796875 -3.632812 12.300781 -2.222656 11.3125 -1.328125 C 10.320312 -0.441406 9.003906 0 7.359375 0 L 2.75 0 C 2.53125 0 2.34375 -0.0625 2.1875 -0.1875 C 2.039062 -0.320312 1.96875 -0.476562 1.96875 -0.65625 Z M 3.6875 -1.59375 L 7.359375 -1.59375 C 8.535156 -1.59375 9.445312 -1.925781 10.09375 -2.59375 C 10.75 -3.257812 11.078125 -4.25 11.078125 -5.5625 L 11.078125 -13.46875 C 11.078125 -14.78125 10.75 -15.765625 10.09375 -16.421875 C 9.445312 -17.085938 8.535156 -17.421875 7.359375 -17.421875 L 3.6875 -17.421875 Z M 3.6875 -1.59375 "/></g></g></g><g fill="#ffffff" fill-opacity="1"><g transform="translate(59.063339, 211.204396)"><g><path d="M 1.96875 -0.671875 L 1.96875 -18.375 C 1.96875 -18.789062 2.253906 -19 2.828125 -19 C 3.398438 -19 3.6875 -18.789062 3.6875 -18.375 L 3.6875 -0.671875 C 3.6875 -0.460938 3.597656 -0.296875 3.421875 -0.171875 C 3.253906 -0.0546875 3.054688 0 2.828125 0 C 2.585938 0 2.382812 -0.0546875 2.21875 -0.171875 C 2.050781 -0.296875 1.96875 -0.460938 1.96875 -0.671875 Z M 1.96875 -0.671875 "/></g></g></g><g fill="#ffffff" fill-opacity="1"><g transform="translate(67.251628, 211.204396)"><g><path d="M 1.765625 -5.40625 L 1.765625 -13.46875 C 1.765625 -15.351562 2.269531 -16.742188 3.28125 -17.640625 C 4.300781 -18.546875 5.617188 -19 7.234375 -19 C 8.878906 -19 10.179688 -18.578125 11.140625 -17.734375 C 12.097656 -16.898438 12.578125 -15.875 12.578125 -14.65625 C 12.578125 -14.25 12.507812 -13.972656 12.375 -13.828125 C 12.25 -13.691406 12.03125 -13.625 11.71875 -13.625 C 11.1875 -13.625 10.90625 -13.84375 10.875 -14.28125 C 10.851562 -14.53125 10.816406 -14.773438 10.765625 -15.015625 C 10.710938 -15.265625 10.609375 -15.539062 10.453125 -15.84375 C 10.296875 -16.144531 10.09375 -16.410156 9.84375 -16.640625 C 9.59375 -16.867188 9.238281 -17.054688 8.78125 -17.203125 C 8.332031 -17.347656 7.816406 -17.421875 7.234375 -17.421875 C 4.734375 -17.421875 3.484375 -16.101562 3.484375 -13.46875 L 3.484375 -5.40625 C 3.484375 -2.757812 4.765625 -1.4375 7.328125 -1.4375 C 8.054688 -1.4375 8.660156 -1.535156 9.140625 -1.734375 C 9.628906 -1.929688 9.988281 -2.21875 10.21875 -2.59375 C 10.445312 -2.976562 10.597656 -3.304688 10.671875 -3.578125 C 10.753906 -3.847656 10.820312 -4.195312 10.875 -4.625 C 10.925781 -5.070312 11.207031 -5.296875 11.71875 -5.296875 C 12.03125 -5.296875 12.25 -5.222656 12.375 -5.078125 C 12.507812 -4.929688 12.578125 -4.648438 12.578125 -4.234375 C 12.578125 -3.003906 12.085938 -1.960938 11.109375 -1.109375 C 10.128906 -0.265625 8.8125 0.15625 7.15625 0.15625 C 5.5625 0.15625 4.265625 -0.289062 3.265625 -1.1875 C 2.265625 -2.09375 1.765625 -3.5 1.765625 -5.40625 Z M 1.765625 -5.40625 "/></g></g></g><g fill="#ffffff" fill-opacity="1"><g transform="translate(83.36755, 211.204396)"><g><path d="M 0.390625 -18.203125 C 0.390625 -18.410156 0.445312 -18.59375 0.5625 -18.75 C 0.675781 -18.914062 0.835938 -19 1.046875 -19 L 11.46875 -19 C 11.675781 -19 11.832031 -18.921875 11.9375 -18.765625 C 12.050781 -18.609375 12.109375 -18.425781 12.109375 -18.21875 C 12.109375 -18 12.050781 -17.804688 11.9375 -17.640625 C 11.832031 -17.472656 11.675781 -17.390625 11.46875 -17.390625 L 7.125 -17.390625 L 7.125 -0.671875 C 7.125 -0.460938 7.035156 -0.296875 6.859375 -0.171875 C 6.691406 -0.0546875 6.492188 0 6.265625 0 C 6.023438 0 5.820312 -0.0546875 5.65625 -0.171875 C 5.488281 -0.296875 5.40625 -0.460938 5.40625 -0.671875 L 5.40625 -17.390625 L 1.046875 -17.390625 C 0.847656 -17.390625 0.6875 -17.46875 0.5625 -17.625 C 0.445312 -17.78125 0.390625 -17.972656 0.390625 -18.203125 Z M 0.390625 -18.203125 "/></g></g></g><g fill="#ffffff" fill-opacity="1"><g transform="translate(98.391794, 211.204396)"><g><path d="M 1.96875 -0.671875 L 1.96875 -18.375 C 1.96875 -18.789062 2.253906 -19 2.828125 -19 C 3.398438 -19 3.6875 -18.789062 3.6875 -18.375 L 3.6875 -0.671875 C 3.6875 -0.460938 3.597656 -0.296875 3.421875 -0.171875 C 3.253906 -0.0546875 3.054688 0 2.828125 0 C 2.585938 0 2.382812 -0.0546875 2.21875 -0.171875 C 2.050781 -0.296875 1.96875 -0.460938 1.96875 -0.671875 Z M 1.96875 -0.671875 "/></g></g></g><g fill="#ffffff" fill-opacity="1"><g transform="translate(106.580081, 211.204396)"><g><path d="M 1.765625 -5.40625 L 1.765625 -13.46875 C 1.765625 -15.375 2.253906 -16.769531 3.234375 -17.65625 C 4.210938 -18.550781 5.523438 -19 7.171875 -19 C 8.816406 -19 10.128906 -18.550781 11.109375 -17.65625 C 12.085938 -16.769531 12.578125 -15.375 12.578125 -13.46875 L 12.578125 -5.40625 C 12.578125 -3.476562 12.085938 -2.066406 11.109375 -1.171875 C 10.128906 -0.285156 8.816406 0.15625 7.171875 0.15625 C 5.523438 0.15625 4.210938 -0.285156 3.234375 -1.171875 C 2.253906 -2.066406 1.765625 -3.476562 1.765625 -5.40625 Z M 3.484375 -5.40625 C 3.484375 -2.757812 4.710938 -1.4375 7.171875 -1.4375 C 9.640625 -1.4375 10.875 -2.757812 10.875 -5.40625 L 10.875 -13.46875 C 10.875 -16.101562 9.640625 -17.421875 7.171875 -17.421875 C 4.710938 -17.421875 3.484375 -16.101562 3.484375 -13.46875 Z M 3.484375 -5.40625 "/></g></g></g><g fill="#ffffff" fill-opacity="1"><g transform="translate(123.449764, 211.204396)"><g><path d="M 1.96875 -0.671875 L 1.96875 -18.359375 C 1.96875 -18.785156 2.253906 -19 2.828125 -19 C 3.316406 -19 3.769531 -18.601562 4.1875 -17.8125 L 11.203125 -3.984375 L 11.203125 -18.375 C 11.203125 -18.789062 11.488281 -19 12.0625 -19 C 12.632812 -19 12.921875 -18.789062 12.921875 -18.375 L 12.921875 -0.671875 C 12.921875 -0.460938 12.832031 -0.296875 12.65625 -0.171875 C 12.488281 -0.0546875 12.289062 0 12.0625 0 C 11.625 0 11.242188 -0.328125 10.921875 -0.984375 L 3.6875 -15.046875 L 3.6875 -0.671875 C 3.6875 -0.460938 3.597656 -0.296875 3.421875 -0.171875 C 3.253906 -0.0546875 3.054688 0 2.828125 0 C 2.585938 0 2.382812 -0.0546875 2.21875 -0.171875 C 2.050781 -0.296875 1.96875 -0.460938 1.96875 -0.671875 Z M 1.96875 -0.671875 "/></g></g></g><g fill="#ffffff" fill-opacity="1"><g transform="translate(140.865285, 211.204396)"><g><path d="M 0.546875 -0.734375 C 0.546875 -0.816406 0.554688 -0.875 0.578125 -0.90625 L 6 -18.5625 C 6.125 -18.957031 6.460938 -19.15625 7.015625 -19.15625 C 7.578125 -19.15625 7.925781 -18.957031 8.0625 -18.5625 L 13.46875 -0.90625 C 13.46875 -0.894531 13.472656 -0.867188 13.484375 -0.828125 C 13.492188 -0.796875 13.5 -0.769531 13.5 -0.75 C 13.5 -0.539062 13.382812 -0.363281 13.15625 -0.21875 C 12.925781 -0.0703125 12.691406 0 12.453125 0 C 12.117188 0 11.898438 -0.144531 11.796875 -0.4375 L 10.609375 -4.453125 L 3.40625 -4.453125 L 2.203125 -0.4375 C 2.140625 -0.144531 1.914062 0 1.53125 0 C 1.289062 0 1.066406 -0.0664062 0.859375 -0.203125 C 0.648438 -0.347656 0.546875 -0.523438 0.546875 -0.734375 Z M 3.84375 -5.921875 L 10.171875 -5.921875 L 7.015625 -16.40625 Z M 3.84375 -5.921875 "/></g></g></g><g fill="#ffffff" fill-opacity="1"><g transform="translate(157.423077, 211.204396)"><g><path d="M 1.96875 -0.671875 L 1.96875 -18.375 C 1.96875 -18.757812 2.1875 -18.96875 2.625 -19 L 7.234375 -19 C 8.910156 -19 10.265625 -18.597656 11.296875 -17.796875 C 12.328125 -17.003906 12.84375 -15.703125 12.84375 -13.890625 C 12.84375 -11.003906 11.488281 -9.328125 8.78125 -8.859375 L 12.796875 -1.171875 C 12.859375 -1.085938 12.890625 -0.972656 12.890625 -0.828125 C 12.890625 -0.609375 12.785156 -0.40625 12.578125 -0.21875 C 12.367188 -0.0390625 12.144531 0.046875 11.90625 0.046875 C 11.59375 0.046875 11.289062 -0.253906 11 -0.859375 L 7 -8.65625 L 3.6875 -8.65625 L 3.6875 -0.671875 C 3.6875 -0.460938 3.597656 -0.296875 3.421875 -0.171875 C 3.253906 -0.0546875 3.054688 0 2.828125 0 C 2.585938 0 2.382812 -0.0546875 2.21875 -0.171875 C 2.050781 -0.296875 1.96875 -0.460938 1.96875 -0.671875 Z M 3.6875 -10.140625 L 7.234375 -10.140625 C 9.828125 -10.140625 11.125 -11.363281 11.125 -13.8125 C 11.125 -16.21875 9.828125 -17.421875 7.234375 -17.421875 L 3.6875 -17.421875 Z M 3.6875 -10.140625 "/></g></g></g><g fill="#ffffff" fill-opacity="1"><g transform="translate(173.69495, 211.204396)"><g><path d="M 0.5 -18.28125 C 0.5 -18.488281 0.597656 -18.660156 0.796875 -18.796875 C 0.992188 -18.929688 1.207031 -19 1.4375 -19 C 1.707031 -19 1.929688 -18.828125 2.109375 -18.484375 L 6.890625 -9 L 11.703125 -18.484375 C 11.867188 -18.828125 12.09375 -19 12.375 -19 C 12.601562 -19 12.816406 -18.929688 13.015625 -18.796875 C 13.210938 -18.660156 13.3125 -18.488281 13.3125 -18.28125 C 13.3125 -18.125 13.273438 -17.96875 13.203125 -17.8125 L 7.796875 -7.484375 C 7.765625 -7.378906 7.75 -7.3125 7.75 -7.28125 L 7.75 -0.671875 C 7.75 -0.460938 7.664062 -0.296875 7.5 -0.171875 C 7.332031 -0.0546875 7.128906 0 6.890625 0 C 6.660156 0 6.457031 -0.0546875 6.28125 -0.171875 C 6.113281 -0.296875 6.03125 -0.460938 6.03125 -0.671875 L 6.03125 -7.28125 C 6.03125 -7.363281 6.019531 -7.429688 6 -7.484375 L 0.625 -17.8125 C 0.539062 -17.96875 0.5 -18.125 0.5 -18.28125 Z M 0.5 -18.28125 "/></g></g></g></svg>