<?xml version="1.0" standalone="no"?>
<!DOCTYPE svg PUBLIC "-//W3C//DTD SVG 20010904//EN"
 "http://www.w3.org/TR/2001/REC-SVG-20010904/DTD/svg10.dtd">
<svg version="1.0" xmlns="http://www.w3.org/2000/svg"
 width="676.000000pt" height="676.000000pt" viewBox="0 0 676.000000 676.000000"
 preserveAspectRatio="xMidYMid meet">
<metadata>
Created by potrace 1.14, written by Peter Selinger 2001-2017
</metadata>
<g transform="translate(0.000000,676.000000) scale(0.100000,-0.100000)"
fill="#000000" stroke="none">
<path d="M1599 6737 c-22 -12 -24 -18 -27 -102 -3 -103 0 -107 88 -111 375
-17 478 -41 519 -122 35 -69 39 -109 47 -447 3 -132 8 -242 10 -244 2 -2 17 2
33 8 42 18 113 16 152 -5 19 -9 50 -34 70 -55 l35 -38 -2 137 c-1 129 -7 215
-20 307 -3 22 -22 65 -43 95 -20 30 -42 67 -48 82 -7 14 -24 34 -39 45 -175
119 -224 274 -128 400 14 18 21 33 17 34 -12 1 -145 6 -402 13 -123 4 -227 8
-230 11 -4 2 -18 -2 -32 -8z"/>
<path d="M3727 6744 c-2 -2 -521 -19 -775 -25 l-82 -2 7 -36 c13 -64 5 -127
-22 -192 -24 -55 -28 -81 -31 -189 -2 -69 -4 -129 -5 -135 -2 -22 14 -130 20
-137 3 -4 16 1 28 10 20 15 22 29 28 147 3 72 7 139 9 150 3 11 5 27 5 35 1
11 29 23 94 40 50 13 101 26 112 27 11 2 36 8 55 13 19 5 55 12 80 15 24 4 47
8 51 10 11 8 194 19 294 19 99 0 212 -8 270 -19 153 -29 224 -50 331 -101 230
-109 406 -336 463 -594 5 -25 13 -58 17 -75 3 -16 8 -104 9 -195 2 -131 -1
-184 -16 -255 -48 -230 -129 -385 -279 -535 -179 -179 -404 -262 -694 -255
-72 2 -140 6 -151 8 -24 6 -104 20 -125 22 -8 1 -31 5 -50 10 -81 20 -96 4
-73 -81 8 -32 17 -66 19 -74 14 -61 21 -73 44 -77 14 -2 39 -5 55 -8 197 -35
501 -40 670 -10 151 26 311 78 440 143 88 43 268 157 299 187 8 8 17 15 20 15
6 0 22 15 129 119 108 105 191 221 271 376 11 22 21 42 21 45 1 3 7 19 14 35
22 54 62 179 67 215 3 19 8 38 10 42 9 15 19 137 18 238 0 111 -7 189 -24 255
-6 22 -13 49 -15 60 -12 53 -89 218 -110 235 -8 7 -15 17 -15 22 0 15 -75 104
-140 167 -92 89 -206 162 -335 216 -87 36 -325 89 -450 100 -33 3 -91 8 -130
11 -64 6 -424 12 -428 8z"/>
<path d="M2495 6716 c-52 -16 -86 -36 -105 -61 -8 -11 -13 -20 -10 -20 2 0 -8
-12 -23 -27 -33 -33 -35 -70 -7 -116 27 -43 65 -76 117 -101 32 -16 44 -29 53
-58 13 -41 77 -143 90 -143 9 0 26 -89 37 -195 14 -141 8 -499 -12 -635 -2
-14 -6 -41 -9 -60 -2 -19 -7 -48 -10 -65 -3 -16 -8 -46 -11 -65 -3 -19 -8 -46
-10 -60 -3 -14 -7 -34 -9 -45 -14 -71 -71 -295 -75 -295 -3 0 -6 37 -6 83 -2
235 -42 575 -76 638 -5 11 -7 19 -4 19 13 0 -49 80 -67 86 -32 10 -75 -15 -93
-53 -19 -39 -25 -134 -14 -203 20 -119 26 -155 29 -155 1 0 4 -11 6 -25 13
-69 118 -377 159 -467 28 -59 27 -85 -10 -213 -33 -115 -39 -136 -50 -180 -2
-8 -4 -15 -5 -15 -2 0 -4 -10 -13 -50 -3 -11 -16 -60 -30 -110 -29 -106 -47
-184 -53 -240 -3 -22 -7 -47 -10 -55 -3 -8 -8 -82 -11 -165 -3 -82 -6 -151 -8
-153 -1 -1 -12 26 -24 60 -105 293 -186 458 -226 458 -35 0 -43 -102 -15 -190
36 -111 149 -290 234 -371 40 -39 1 -17 -43 24 -68 61 -184 161 -254 217 -10
8 -28 24 -40 34 -53 46 -262 198 -317 230 -32 19 -78 41 -101 47 -39 12 -43
11 -60 -9 -21 -27 -15 -56 27 -128 61 -103 205 -228 354 -305 36 -19 67 -37
68 -41 2 -5 11 -8 21 -8 9 0 21 -4 26 -9 20 -19 298 -121 330 -121 20 0 31
-27 34 -80 1 -25 4 -58 6 -75 2 -16 6 -57 10 -90 6 -62 12 -101 20 -145 3 -14
7 -41 9 -60 19 -155 150 -697 193 -800 3 -8 7 -19 7 -25 1 -14 28 -17 46 -6
12 8 12 17 -4 66 -9 31 -19 64 -21 73 -2 9 -11 42 -20 72 -25 86 -44 156 -49
182 -6 28 -33 141 -45 185 -10 37 -10 38 46 63 62 27 125 73 189 138 55 56
128 154 141 189 3 10 14 29 23 43 19 28 62 139 55 141 -41 11 -128 -14 -193
-55 -22 -14 -71 -54 -108 -88 -37 -35 -65 -58 -62 -53 9 16 108 226 108 230 0
2 19 43 41 92 23 48 73 160 111 248 38 88 77 178 88 200 33 73 101 263 107
301 8 50 -16 70 -57 49 -59 -31 -219 -231 -324 -405 -52 -87 -145 -268 -151
-294 -1 -6 -7 -22 -12 -36 -23 -56 -46 -129 -63 -205 -10 -44 -19 -69 -20 -55
-2 14 -4 34 -5 45 -21 158 -21 470 0 595 3 19 7 52 10 73 2 21 7 41 9 46 3 5
8 25 11 44 6 36 62 238 67 241 44 28 236 170 301 224 107 89 156 141 179 190
17 37 17 37 -7 59 -24 21 -31 22 -110 8 -31 -5 -127 -50 -161 -77 -31 -23 -82
-80 -116 -129 -18 -26 -21 -39 42 196 12 44 23 87 25 95 2 8 12 51 23 95 11
44 30 130 42 190 l22 110 60 65 c32 36 80 92 106 125 25 33 52 66 58 72 43 45
143 217 167 287 41 120 -1 214 -86 192 -53 -13 -124 -107 -207 -271 l-55 -110
-1 165 c0 167 -7 273 -22 367 -5 28 -8 69 -7 90 9 142 6 218 -10 243 -4 6 5
24 18 40 38 44 61 113 54 161 -8 57 -34 81 -93 85 -27 2 -65 5 -84 8 -19 2
-53 -2 -75 -8z m95 -51 c0 -8 -4 -15 -8 -15 -10 0 -10 0 -16 -85 -2 -33 -5
-62 -5 -64 -1 -2 -16 18 -33 45 -18 26 -48 55 -66 64 -27 15 -30 19 -17 30 41
34 145 52 145 25z m98 -7 c7 -7 12 -23 12 -36 0 -34 -21 -102 -32 -102 -4 0
-8 -5 -8 -11 0 -13 -25 -39 -38 -39 -9 0 -10 75 -4 141 2 16 38 59 50 59 5 0
13 -5 20 -12z m-213 -123 c30 -32 62 -102 52 -112 -9 -9 -77 29 -108 59 -44
45 -52 64 -33 83 22 21 52 11 89 -30z m163 -147 c7 -27 8 -78 3 -146 -1 -8
-11 -1 -25 15 -54 65 -67 124 -34 147 33 24 46 20 56 -16z m318 -565 c-56 -87
-75 -121 -154 -273 -70 -135 -91 -168 -68 -105 68 187 143 328 220 413 48 52
49 37 2 -35z m68 10 c-8 -47 -26 -96 -52 -143 -26 -48 -90 -148 -107 -167 -5
-6 -32 -41 -60 -76 -27 -36 -51 -64 -53 -63 -3 4 117 237 170 331 79 138 112
176 102 118z m-690 -380 c11 -111 25 -222 31 -243 2 -8 7 -37 10 -65 3 -27 8
-66 10 -85 9 -58 -12 -2 -39 109 -32 128 -38 164 -41 244 -5 120 18 151 29 40z
m49 0 c24 -90 43 -228 52 -377 3 -49 8 -92 10 -97 3 -4 1 -10 -5 -14 -5 -3
-10 -3 -10 2 0 4 -5 35 -10 68 -10 58 -15 92 -25 165 -2 19 -6 51 -9 70 -3 19
-8 55 -10 80 -11 94 -18 145 -23 153 -2 4 0 7 5 7 5 0 16 -26 25 -57z m387
-811 c-39 -26 -173 -144 -194 -170 -31 -39 -30 -16 2 30 40 57 87 101 142 132
51 29 90 35 50 8z m8 -58 c-40 -36 -98 -85 -128 -107 -30 -22 -57 -43 -60 -46
-15 -17 -50 -43 -50 -37 0 11 132 134 204 191 22 17 48 38 60 47 12 10 27 17
34 18 7 0 -20 -30 -60 -66z m103 -541 c-12 -23 -41 -89 -76 -178 -16 -38 -43
-101 -61 -140 -18 -38 -58 -128 -90 -200 -31 -71 -76 -170 -99 -220 -23 -49
-54 -119 -70 -155 -40 -92 -50 -97 -21 -12 14 40 22 72 19 72 -3 0 0 7 7 15 7
8 9 15 4 15 -4 0 -3 5 4 12 7 7 12 18 12 25 0 51 252 619 303 683 7 8 21 31
31 50 17 30 34 49 44 50 1 0 -2 -8 -7 -17z m-180 -235 c-67 -134 -180 -393
-187 -428 0 -3 -4 -14 -8 -25 -4 -11 -12 -31 -16 -45 -4 -14 -12 -34 -16 -45
-9 -24 -8 -20 -23 -75 -7 -25 -16 -49 -19 -55 -4 -5 -7 -12 -8 -15 -9 -51 -18
-81 -24 -85 -9 -6 -6 95 5 160 18 113 96 319 172 458 39 72 202 327 208 327 1
0 -36 -78 -84 -172z m-1151 112 c3 -3 19 -14 35 -24 32 -21 223 -163 241 -181
6 -5 31 -26 57 -45 25 -19 47 -39 47 -43 0 -10 -7 -6 -93 55 -37 26 -69 48
-72 48 -4 0 -93 67 -180 135 -82 65 -126 115 -67 78 15 -10 29 -20 32 -23z
m551 -113 c33 -79 24 -84 -10 -5 -43 97 -51 116 -51 125 1 13 30 -44 61 -120z
m-51 22 c0 -5 18 -46 40 -91 42 -86 32 -90 -14 -6 -22 42 -67 161 -66 177 1 9
40 -71 40 -80z m-419 -34 c57 -44 151 -111 209 -149 154 -101 157 -111 10 -33
-147 78 -259 164 -340 262 -22 26 -23 28 -4 15 12 -8 69 -51 125 -95z m1123
-662 c-67 -126 -178 -247 -275 -301 -56 -32 -47 -19 87 127 78 85 95 104 158
175 32 36 60 66 62 66 3 0 -12 -30 -32 -67z m-63 10 c-6 -10 -36 -46 -68 -80
-81 -86 -155 -170 -164 -185 -4 -7 -10 -10 -14 -7 -9 10 95 141 173 217 77 75
89 84 73 55z"/>
<path d="M2835 5185 c-30 -30 -39 -48 -51 -108 -9 -40 -18 -81 -20 -92 -3 -11
-7 -31 -10 -45 -3 -14 -9 -40 -14 -59 l-9 -33 32 7 c32 7 67 12 97 14 14 1 16
26 17 176 1 96 0 175 -2 175 -2 0 -20 -16 -40 -35z"/>
<path d="M2239 4834 c-4 -48 -3 -534 2 -534 3 0 14 30 23 68 10 37 19 73 22
80 2 7 4 14 4 17 0 3 7 23 15 45 8 22 14 42 15 45 0 3 0 6 1 8 10 33 2 69 -32
161 -43 114 -48 126 -50 110z"/>
<path d="M2848 4387 c-15 -12 -40 -32 -55 -45 -15 -13 -57 -44 -93 -70 -36
-26 -70 -51 -77 -57 -6 -5 -28 -21 -47 -35 -28 -21 -38 -36 -51 -90 -52 -204
-52 -200 -33 -200 6 0 9 3 5 6 -4 5 103 167 122 184 4 3 19 23 36 45 59 81
193 204 216 198 4 -2 8 17 7 42 0 25 -1 45 -2 45 0 0 -13 -10 -28 -23z"/>
<path d="M2847 3481 c-15 -32 -27 -62 -27 -66 0 -3 12 -5 28 -3 26 3 27 6 30
66 1 34 1 62 -1 62 -1 0 -15 -27 -30 -59z"/>
<path d="M2838 2903 c-37 -56 -141 -158 -210 -204 -54 -37 -59 -43 -53 -67 4
-15 9 -38 11 -52 3 -14 8 -34 11 -45 4 -11 8 -24 9 -30 7 -38 63 -231 96 -333
45 -137 46 -132 -27 -154 -84 -24 -80 -25 270 -33 72 -2 229 -6 350 -10 133
-3 226 -2 234 4 19 12 23 177 5 192 -7 6 -46 12 -86 15 -315 18 -375 27 -451
65 -85 44 -106 131 -111 479 -2 117 -8 206 -13 207 -6 2 -21 -13 -35 -34z"/>
<path d="M2230 2630 c-1 -14 -3 -50 -5 -80 -8 -118 -24 -196 -49 -244 -36 -70
-129 -97 -386 -111 -133 -8 -184 -13 -202 -20 -15 -6 -18 -21 -18 -95 0 -65 4
-91 15 -100 11 -9 66 -11 227 -6 117 4 296 9 398 12 102 2 190 6 196 9 8 2 5
22 -8 62 -21 61 -66 206 -74 236 -2 9 -6 25 -8 35 -3 9 -14 55 -26 102 -12 47
-24 92 -27 100 -3 8 -7 26 -9 40 -2 14 -7 39 -13 55 -9 29 -9 29 -11 5z"/>
<path d="M1500 1625 c-6 -7 -10 -107 -10 -248 1 -191 3 -238 15 -244 7 -4 54
-6 104 -3 70 4 96 10 118 26 48 35 54 60 54 223 1 167 -9 204 -61 234 -37 22
-204 31 -220 12z m197 -50 c32 -21 39 -61 38 -206 -1 -138 -10 -169 -52 -188
-27 -12 -143 -15 -143 -3 -1 12 -1 386 -1 399 2 24 121 22 158 -2z"/>
<path d="M1961 1631 c-11 -7 -14 -52 -13 -232 0 -292 -2 -269 22 -269 11 0 20
3 21 8 1 4 2 112 2 241 2 234 -3 270 -32 252z"/>
<path d="M2255 1627 c-37 -12 -63 -34 -80 -68 -16 -31 -20 -316 -4 -356 43
-114 248 -102 274 16 13 61 -28 72 -46 13 -13 -46 -39 -64 -90 -64 -46 1 -75
15 -90 44 -14 25 -19 268 -7 313 11 43 43 65 92 65 52 0 81 -20 96 -65 18 -56
61 -39 46 18 -17 69 -110 110 -191 84z"/>
<path d="M2560 1626 c-5 -5 -6 -15 -3 -22 4 -10 24 -14 68 -14 l63 0 0 -217
c0 -265 -2 -243 21 -243 10 0 21 6 23 13 2 6 3 110 3 230 l-2 217 63 0 c45 0
63 4 67 15 4 8 1 18 -6 22 -17 11 -286 10 -297 -1z"/>
<path d="M3010 1630 c-13 -7 -15 -44 -14 -244 1 -130 2 -240 3 -246 2 -21 39
-10 42 13 8 45 1 469 -7 477 -5 5 -16 5 -24 0z"/>
<path d="M3305 1629 c-37 -10 -73 -42 -86 -76 -15 -39 -11 -318 5 -356 18 -45
57 -68 119 -71 58 -3 90 9 127 49 24 26 25 30 26 196 2 159 0 171 -20 202 -35
52 -102 74 -171 56z m121 -66 c25 -27 25 -28 22 -190 -3 -180 -6 -188 -70
-202 -23 -5 -46 -4 -64 4 -54 22 -57 35 -59 188 -3 195 12 226 103 227 34 0
48 -6 68 -27z"/>
<path d="M3673 1627 c-5 -6 -9 -120 -9 -252 l1 -240 23 -3 22 -3 0 190 c0 105
3 191 8 190 4 0 41 -69 82 -152 97 -197 117 -229 138 -225 15 3 17 26 18 248
0 151 -3 248 -9 252 -6 3 -16 4 -24 1 -10 -4 -13 -47 -13 -202 l0 -196 -98
193 c-95 189 -120 225 -139 199z"/>
<path d="M4243 1628 c-6 -7 -13 -22 -16 -33 -7 -24 -79 -261 -113 -369 -25
-79 -22 -105 8 -93 12 4 40 73 42 102 1 14 183 16 194 1 5 -6 15 -33 22 -59
11 -40 16 -48 34 -45 26 4 25 10 -16 143 -16 55 -39 129 -50 165 -58 192 -76
224 -105 188z m66 -211 c32 -108 36 -127 22 -128 -34 -3 -143 -1 -146 3 -2 2
15 64 38 137 23 73 43 129 44 124 2 -4 20 -66 42 -136z"/>
<path d="M4581 1632 c-8 -3 -11 -75 -11 -254 l0 -249 23 3 c21 3 22 7 22 113
l1 110 44 0 45 0 59 -112 c43 -83 63 -113 77 -113 28 0 23 22 -25 113 -62 117
-62 119 -17 140 46 21 67 71 59 142 -9 79 -56 107 -178 109 -48 1 -92 0 -99
-2z m156 -41 c12 -1 34 -12 49 -25 48 -40 33 -136 -24 -157 -28 -11 -130 -14
-139 -5 -11 11 -9 169 2 180 6 6 29 10 51 9 21 -1 49 -2 61 -2z"/>
<path d="M4967 1624 c-6 -6 110 -243 125 -254 11 -9 21 -82 22 -160 1 -68 3
-75 21 -75 18 0 20 7 22 80 2 111 3 114 77 255 82 155 85 163 55 158 -17 -2
-34 -24 -69 -93 -25 -49 -55 -107 -66 -128 l-20 -38 -64 130 c-60 124 -80 148
-103 125z"/>
<path d="M1699 1013 c-3 -19 -5 -719 -2 -728 3 -10 123 -13 139 -3 5 4 9 60 8
126 l-1 120 34 4 c35 4 51 -7 57 -39 2 -10 10 -38 17 -63 7 -25 13 -47 14 -50
7 -41 30 -100 39 -101 82 -6 136 -2 136 9 0 8 -18 72 -40 142 l-41 128 24 26
c35 37 47 96 44 211 -5 188 -34 212 -261 214 -82 1 -153 4 -158 7 -4 3 -9 2
-9 -3z m246 -137 c32 -8 39 -36 36 -143 -1 -55 -18 -69 -83 -72 l-54 -1 2 107
c1 60 2 110 3 113 1 7 64 4 96 -4z"/>
<path d="M2353 1012 c-12 -2 -24 -11 -28 -20 -5 -13 -95 -442 -119 -563 -2
-13 -9 -44 -15 -69 -20 -84 -19 -85 52 -84 35 0 68 4 74 7 6 4 14 28 19 54 4
27 8 51 10 56 1 4 2 13 3 21 1 10 21 13 81 13 l79 1 10 -32 c6 -17 13 -48 16
-70 2 -21 7 -41 10 -44 7 -7 134 -6 141 1 5 5 0 35 -22 137 -3 14 -7 36 -10
50 -3 14 -9 41 -13 60 -5 19 -9 42 -10 50 0 8 -7 44 -15 80 -8 36 -17 76 -19
90 -19 101 -51 246 -57 253 -7 8 -146 15 -187 9z m91 -182 c3 -19 8 -45 10
-57 3 -11 8 -43 12 -70 3 -26 9 -57 11 -68 3 -11 5 -33 6 -50 2 -29 1 -30 -43
-30 -69 -2 -68 -3 -53 78 17 91 19 102 28 157 8 53 16 83 20 78 2 -2 6 -19 9
-38z"/>
<path d="M2808 1012 c-28 -2 -48 -8 -49 -15 0 -7 -2 -167 -2 -356 -2 -244 1
-348 9 -356 11 -11 105 -12 122 -1 5 3 9 89 8 192 -1 102 1 187 4 189 4 2 41
-80 84 -183 44 -103 82 -191 87 -197 6 -8 57 -11 122 -6 9 1 12 78 12 360 0
198 -2 362 -5 364 -5 5 -84 10 -122 8 -15 -1 -16 -19 -15 -176 0 -96 -1 -177
-4 -180 -3 -2 -39 75 -81 172 -83 195 -79 191 -170 185z"/>
<path d="M3404 1009 c-82 -23 -121 -116 -110 -257 7 -83 33 -139 69 -147 12
-3 53 -11 91 -19 37 -8 74 -20 82 -28 15 -15 21 -90 10 -125 -10 -32 -48 -38
-191 -31 l-49 3 -1 -58 c-1 -56 0 -58 30 -66 16 -4 83 -8 147 -7 101 1 120 4
145 22 30 22 59 72 68 119 9 49 7 151 -4 193 -20 74 -46 88 -211 119 -33 6
-40 19 -40 79 0 77 15 86 136 82 l98 -3 1 49 c0 27 -5 54 -12 61 -22 23 -194
31 -259 14z"/>
<path d="M4354 1012 l-61 -3 -13 -72 c-8 -40 -15 -76 -16 -82 -2 -5 -6 -23 -9
-40 -3 -16 -13 -64 -22 -105 -8 -41 -17 -84 -19 -95 -2 -11 -6 -31 -9 -45 -11
-48 -15 -65 -20 -90 -2 -14 -10 -50 -17 -80 -6 -30 -11 -60 -10 -67 2 -6 -2
-14 -7 -17 -5 -3 -7 -14 -5 -24 5 -16 42 -20 139 -13 6 1 11 10 12 22 1 11 7
44 13 74 l11 54 82 -2 81 -2 14 -70 c8 -38 18 -72 22 -75 10 -6 130 -4 136 3
4 3 -4 49 -21 127 -3 14 -8 38 -11 54 -3 16 -18 93 -35 170 -16 78 -32 157
-35 176 -3 19 -7 37 -9 40 -2 3 -6 25 -10 49 -3 24 -10 53 -14 65 -5 11 -9 26
-10 31 -1 13 -77 21 -157 17z m54 -159 c0 -10 3 -29 6 -43 7 -24 12 -53 21
-115 3 -16 7 -41 10 -55 3 -14 7 -38 11 -55 l5 -30 -58 0 -58 0 3 30 c2 17 10
62 18 100 7 39 16 88 19 110 7 46 15 75 20 75 2 0 4 -8 3 -17z"/>
<path d="M4729 1010 l-45 -5 -3 -62 c-3 -70 -10 -64 84 -67 l50 -1 3 -295 c1
-161 6 -297 11 -300 8 -4 80 -5 127 -1 8 1 11 86 12 284 0 155 1 290 1 299 1
14 11 17 54 17 90 -1 84 -6 83 66 l-1 65 -40 0 c-22 1 -96 2 -165 3 -69 1
-146 0 -171 -3z"/>
<path d="M5193 1012 l-23 -3 0 -365 c0 -284 3 -364 13 -365 15 -1 318 -1 334
0 7 1 11 24 11 65 l-1 64 -101 -1 -101 -1 0 89 0 89 88 0 88 -1 -3 65 -3 65
-87 0 -88 0 -1 56 c-1 61 1 104 6 109 2 2 48 4 102 5 l98 2 3 63 3 62 -33 0
c-18 1 -89 2 -158 3 -69 1 -135 1 -147 -1z"/>
<path d="M1205 951 c0 -33 4 -63 8 -67 4 -4 34 -7 66 -6 39 1 60 -3 63 -11 2
-7 3 -141 3 -299 -1 -199 2 -288 9 -289 13 -1 118 -1 128 0 4 1 9 135 10 299
l3 297 40 1 c106 4 95 -4 95 69 l0 65 -213 0 -213 0 1 -59z"/>
<path d="M3789 993 c0 -10 -1 -173 -2 -361 0 -234 3 -346 10 -350 6 -4 80 -7
165 -6 l153 1 3 69 3 69 -87 -3 c-52 -2 -89 1 -93 7 -4 5 -6 141 -6 300 l0
291 -72 0 c-63 0 -73 -3 -74 -17z"/>
</g>
</svg>
